<svg id="Layer_1" data-name="Layer 1" xmlns="http://www.w3.org/2000/svg" viewBox="0 0 1085.67 148.65"><defs><style>.cls-1{fill:#231f20;}</style></defs><path class="cls-1" d="M61.61,69.61l1.31.68A170.47,170.47,0,0,0,97.16,83.42C87.82,75.73,74.05,72.46,61.61,69.61Zm45.12,27.82L105,96.6C91.44,90,78.06,83.11,64.77,76a77.16,77.16,0,0,1-13.24-8.81c-10.89-2.85-19-6.35-19-14.2,0-8.19,6.87-14.88,24.73-14.88a63.28,63.28,0,0,1,10.6.92c-2.7-.93-5.37-2-8.06-3-2.2-.77-4.33-1.72-6.56-2.42-8.22-2.6-14.41-.32-19.12,6.92S30.58,55,35,61.79c4.2,6.44,10.09,11.14,16.38,15.37,10,6.75,21,11.77,32,16.72,8.18,3.7,16.4,7.27,24.71,10.63A34.31,34.31,0,0,0,106.73,97.43ZM77.89,41.5a81.77,81.77,0,0,1,15.49,6.87l2.39-5.88A83.77,83.77,0,0,1,77.89,41.5Z"/><path class="cls-1" d="M108.27,108.27c0,21.77-18,40.38-55.25,40.38-20.66,0-41.49-6.15-53-15.07l10.23-22.7c11,8,27.34,13.58,43,13.58,17.86,0,25.11-5.95,25.11-14,0-24.37-75.71-7.62-75.71-56C2.6,32.37,20.46,14,57.48,14c16.38,0,33.11,3.91,45.21,11.54l-6.92,17a83.77,83.77,0,0,1-17.88-1c-1.68-.26-3.35-.6-5-1s-3.31-.9-4.93-1.45h0c-2.7-.93-5.37-2-8.06-3-2.2-.77-4.33-1.72-6.56-2.42-8.22-2.6-14.41-.32-19.12,6.92S30.58,55,35,61.79c4.2,6.44,10.09,11.14,16.38,15.37,10,6.75,21,11.77,32,16.72,8.18,3.7,16.4,7.27,24.71,10.63C108.21,105.72,108.27,107,108.27,108.27Z"/><path class="cls-1" d="M122.37,83.39,121,83.21h0c-.36,1.42-.66,2.88-.89,4.38,1.83.17,3.66.31,5.48.49a56.27,56.27,0,0,1,23.23,7.79c0-1,.06-2,.15-3A61.76,61.76,0,0,0,122.37,83.39Zm52.12-38.56a64.32,64.32,0,0,0-17.64,2.39,53.71,53.71,0,0,0-7.7,2.79c-1.54,6.19.18,11.6,5.33,16.59a76.93,76.93,0,0,0,6.46,5.64,24.64,24.64,0,0,1,5-2.28,27.44,27.44,0,0,1,8.55-1.32,26.88,26.88,0,0,1,3.51.23h0a25.5,25.5,0,0,1,5.26,1.18l1.29-.89a24.15,24.15,0,0,1,3.57-2c4.88-2.17,9.51-.19,10.35,5v0a90.74,90.74,0,0,1,1.82,12.76,66.77,66.77,0,0,1-.93,18.16,28.1,28.1,0,0,1-3.64,9.64,24.32,24.32,0,0,1-3.73,4.64l0,0a24.74,24.74,0,0,1-17.48,6.67,27.73,27.73,0,0,1-6.12-.66h0c-.1,0-.2,0-.3-.06l-.14,0-.13,0a22.12,22.12,0,0,1-3.2-1h0c-15.38-4.87-30.1-11.49-44.64-18.45a50.63,50.63,0,0,0,1.1,5.74c5.73,23,26.54,38.35,53.47,38.35,31.81,0,54.89-21.39,54.89-51.53S206.3,44.83,174.49,44.83Z"/><path class="cls-1" d="M238.57,8.38v138h29V8.38Z"/><path class="cls-1" d="M382.44,96.73c0-32.18-22.7-51.9-52.09-51.9C299.84,44.83,277,66.41,277,96.37c0,29.76,22.51,51.52,57.11,51.52,18.05,0,32-5.57,41.3-16.17L359.94,115c-6.89,6.51-14.52,9.67-25.12,9.67-15.26,0-25.86-7.63-28.65-20.09h75.71C382.07,102.14,382.44,99,382.44,96.73Zm-76.64-9.1c2-12.84,11.54-20.84,24.74-20.84,13,0,22.51,8.18,24.55,20.84Z"/><path class="cls-1" d="M485.22,16.19,445,109.2l-39.62-93H372.85L429,146.41h29.76L515.16,16.19Z"/><path class="cls-1" d="M540.27,0c-10.78,0-18,7.07-18,16.19s7.26,16.18,18,16.18,18.05-7.06,18.05-16.74C558.32,6.7,551.07,0,540.27,0ZM525.76,46.33V146.41h29V46.33Z"/><path class="cls-1" d="M630.76,44.83c-12.46,0-22.69,3.91-30.14,12.1V8.38h-29v138h27.71V134.88c7.26,8.74,18,13,31.44,13,28.09,0,49.86-20.08,49.86-51.52S658.85,44.83,630.76,44.83Zm-5,79.25c-14.51,0-25.49-10.41-25.49-27.71s11-27.72,25.49-27.72,25.48,10.42,25.48,27.72S640.26,124.08,625.75,124.08Z"/><path class="cls-1" d="M798,96.73c0-32.18-22.69-51.9-52.08-51.9-30.52,0-53.4,21.58-53.4,51.54,0,29.76,22.52,51.52,57.12,51.52,18,0,32-5.57,41.29-16.17L775.5,115c-6.89,6.51-14.51,9.67-25.11,9.67-15.27,0-25.87-7.63-28.66-20.09h75.71C797.64,102.14,798,99,798,96.73Zm-76.64-9.1c2-12.84,11.53-20.84,24.74-20.84,13,0,22.51,8.18,24.56,20.84Z"/><path class="cls-1" d="M178,68.87c-1.46.86-2.91,1.75-4.42,2.5a6.19,6.19,0,0,1-7.14-1l-.5-.44a27.15,27.15,0,0,1,8.55-1.32A26.78,26.78,0,0,1,178,68.87Z"/><path class="cls-1" d="M201.18,76.4a45,45,0,0,1-.87,8.54,90.74,90.74,0,0,0-1.82-12.76v0c-.84-5.22-5.47-7.2-10.35-5a24.15,24.15,0,0,0-3.57,2l-1.29.89c-2.05,1.44-4,3-6.15,4.26-4.81,3-9.66,2.91-14.21-.54-.66-.49-1.32-1-2-1.53a76.93,76.93,0,0,1-6.46-5.64c-5.15-5-6.87-10.4-5.33-16.59a26.26,26.26,0,0,1,1.17-3.47c.84-2,2.1-3.86,2.9-5.89a37.39,37.39,0,0,0,1.18-5.25c-2.13.07-3.71-.13-5.15.24a58.76,58.76,0,0,0-7.36,2.55C131,42.63,120,47,108.36,49.11c-13.82,2.51-27.59,2.51-41.15-1.38-5.66-1.63-11.06-4.06-16.65-5.91-4.79-1.59-8,.15-9.9,5.08.51.64,1.05,1.35,1.61,2A54.81,54.81,0,0,0,57.65,61.11c19.8,11.16,40.77,19,63.36,22.1h0l1.35.18A61.76,61.76,0,0,1,149,92.86a52.36,52.36,0,0,1,4.55,3.29c5.07,4,10.34,7.86,15.52,11.77.33.26.66.5,1,.74a5.62,5.62,0,0,1-2.57-.83c-4.52-2.83-9.13-5.54-13.48-8.62q-2.53-1.8-5.15-3.34a56.27,56.27,0,0,0-23.23-7.79c-1.82-.18-3.65-.32-5.48-.49-2.07-.18-4.13-.4-6.18-.7a158.41,158.41,0,0,1-16.78-3.47A169.64,169.64,0,0,1,62.92,70.29l-1.31-.68h0A79.89,79.89,0,0,1,43.17,56.75l-2.06-2-.47.45a80.67,80.67,0,0,0,5.12,6.6,62.74,62.74,0,0,0,5.77,5.42A76.77,76.77,0,0,0,64.77,76C78.06,83.11,91.44,90,105,96.6c.58.27,1.15.56,1.73.84q6.57,3.19,13.19,6.37c14.54,7,29.26,13.58,44.64,18.45h0c1.26.4,2.51.78,3.77,1.15-.1,0-.2,0-.3-.06l-.14,0-.13,0c-6.83-1.63-13.71-3-20.46-5-8.89-2.57-17.64-5.52-26.29-8.75q-6.49-2.42-12.91-5c-8.31-3.36-16.53-6.93-24.71-10.63-11-5-22-10-32-16.72C45.1,72.93,39.2,68.23,35,61.79c-4.43-6.83-5.61-13.9-.86-21.18s10.9-9.52,19.12-6.92c2.23.71,4.36,1.65,6.56,2.42,2.69.94,5.37,2,8.06,2.94h0a48.87,48.87,0,0,0,4.94,1.46c1.68.38,3.35.72,5,1a84.42,84.42,0,0,0,17.88,1,102,102,0,0,0,14.45-1.79c10.06-2,19.55-5.74,29.14-9.21a48.32,48.32,0,0,1,11.07-2.9c7.41-.77,11.65,4.4,9.61,11.54a34.87,34.87,0,0,1-3.19,7.09l-.5.88c-2.61,4.62-2.72,9.2.69,13.2a87.74,87.74,0,0,0,8.9,8.66l.49.46a6.21,6.21,0,0,0,7.14,1c1.52-.76,3-1.63,4.43-2.5h0c1-.6,2-1.19,3.06-1.72,2.6-1.35,5.2-2.92,8-3.6,5.74-1.4,10.37,1.79,11.58,7.55A25.56,25.56,0,0,1,201.18,76.4Z"/><path class="cls-1" d="M400.87,112.74a20.65,20.65,0,0,1-3.74,4.64A24,24,0,0,0,400.87,112.74Z"/><path class="cls-1" d="M938.74,108.15c0,23.72-18.81,37.44-54.88,37.44h-71V8.38h67c34.3,0,51.94,14.31,51.94,35.67,0,13.72-7,24.31-18.23,30.19C928.94,79.14,938.74,90.9,938.74,108.15ZM844.46,32.29V64.63H876c15.48,0,23.91-5.48,23.91-16.27S891.5,32.29,876,32.29Zm62.33,72.53c0-11.57-8.82-17.06-25.28-17.06h-37v33.92h37C898,121.68,906.79,116.58,906.79,104.82Z"/><path class="cls-1" d="M947.68,8.38H1010c44.89,0,75.66,27.05,75.66,68.6s-30.77,68.61-75.66,68.61H947.68Zm60.76,111.14c27.25,0,45.09-16.27,45.09-42.54s-17.84-42.53-45.09-42.53h-29v85.07Z"/></svg>